<?xml version="1.0" encoding="UTF-8"?>
<!-- Generator: Adobe Illustrator 21.1.0, SVG Export Plug-In . SVG Version: 6.00 Build 0)  -->
<svg version="1.1" id="Lager_1" xmlns="http://www.w3.org/2000/svg" xmlns:xlink="http://www.w3.org/1999/xlink" x="0px" y="0px" viewBox="0 0 270.7 76.8" style="enable-background:new 0 0 270.7 76.8;" xml:space="preserve">
<g>
	<g>
		<path d="M268.1,29c1.6-1.1,2.6-2.9,2.6-5c0-3.5-3-6.3-6.6-6.3c-2,0-3.7,0.8-5,2.1c-1.1,1.1-1.9,2.4-2.8,3.7    c-1,1.4-1.9,2.7-2.9,4.1c-0.9,1.3-2.8,3.9-3.9,5.4c0,0-0.1,0-0.1,0c-0.4-0.1-0.7-0.1-1.1-0.1c-0.3,0-0.6,0.1-1,0.2    c-0.6,0.2-1.2,0.6-1.6,1c-0.2,0.2-0.4,0.4-0.6,0.6c-1.7,1.9-2.1,4.1-2.2,6.5c0,0.3,0,0.8-0.2,1c-1.2,1-2.4,2.1-3.8,2.8    c-1.6,0.7-3-0.4-3.1-2.1c0-0.8,0-1.6,0.2-2.3c2.1-8.3,4.3-16.6,6.4-24.9c1.1-4.2,2.2-8.5,3.3-12.8c0.4-1.6-1.1-2.8-2.8-2.9    c-6.6-0.3-7,2.9-7,2.9c-2.5,9.3-4.9,18.6-7.3,27.8c-1,3.8-2,7.7-4.7,10.9c-1.1,1.3-2.5,2.4-4,3.2c-1.7,0.9-3.3-0.2-3.3-2.1    c0-0.7,0-1.5,0.2-2.2c1.8-7,3.6-14.1,5.5-21.1c0.8-3,1.5-5.9,2.3-8.9c0.6-2.2,1.4-4.4,1.8-6.7c0.2-0.9,0.4-1.8-0.1-2.7    c-0.5-0.8-1.2-1.1-2.1-1.2c-3.2-0.3-6.7,0.3-7.6,3.7c-2.5,9.3-5,18.6-7.3,28c-0.1,0.3-0.2,0.7-0.3,1c-1.6,6.5-5.5,11-12.1,13.1    c-5.1,1.6-8.9-0.6-9.5-5.4c-0.1-0.9-0.1-1.7-0.1-2.3c4.5,1.1,8.8-0.8,8.8-0.8c3.6-1.7,6.5-4.2,8.1-7.8c2-4.5-0.1-8.6-5.1-9.6    c-3.2-0.7-6.3-0.4-9.2,0.9c-7.4,3.4-11.3,9.2-12.6,16.8c-0.1,0.6-0.3,1.2-0.7,1.7c-2.3,2.7-5.2,4.8-8.5,6.3    c-0.2,0.1-0.5,0.1-0.8,0.2c0.7-1,1.5-1.9,2-2.9c3-5,4.8-10.3,3.8-16.2c-0.7-3.8-3.1-6.5-6.3-7c-3.4-0.5-6.5,0.2-9.2,2.3    c-0.6,0.5-1.2,0.9-2,1.6c1.9-7.2,3.8-14,5.6-20.9c0.2-0.5,0.4-2.8-2.7-2.8c-6.1,0-7.1,3-7.1,3c-2.6,9.8-5.2,19.7-7.8,29.5    l-0.6,2.4c-1.9,5.3-5.6,9-11.5,10.9c-5.1,1.6-8.9-0.6-9.5-5.4c-0.1-0.9-0.1-1.7-0.1-2.3c4.5,1.1,8.8-0.8,8.8-0.8    c3.6-1.7,6.5-4.2,8.1-7.8c2-4.5-0.1-8.6-5.1-9.6c-3.2-0.7-6.3-0.4-9.2,0.9c-7.4,3.4-11.3,9.2-12.6,16.8c0,0-0.1,0.9-0.1,2.1    c-0.6,1.1-1.3,2.1-2.1,3.1c-1,1.1-2.1,2-3.7,2.2c-2.5,0.3-2.4-2.4-2-4c0.9-3.2,1.9-6.4,2.9-9.6c1.7-5.5-1-8.2-5.5-9.6    c-0.6-0.2-1.3-0.4-1.9-0.5c-1.5-0.4-3-0.8-4.5-1.1c0.7-1.5,1.1-3.5-1.2-3.5c-1.5,0-2.5,1.3-3.1,2.5c-0.3,0.7-0.5,1.4-0.7,2.1    c-1.5,5.4-2.9,10.9-4.5,16.2c-0.6,2-1.6,3.8-3,5.4c-1.1,1.2-3.3,3.1-5.1,1.8c-1.1-0.8-0.9-2.4-0.6-3.7c0.5-2.4,1.1-4.8,1.7-7.2    c0.6-2.4,1.2-4.8,1.9-7.1c0.3-1.2,0.6-2.4,1-3.6c0.2-0.6,0.3-1.2,0.5-1.8c0.1-0.2,0.2-0.5,0.1-0.7c-0.1-0.4-0.4-0.6-0.7-0.8    c-0.6-0.4-1.3-0.6-2-0.7c-0.6-0.1-1.1-0.3-1.7-0.4c-1.6-0.3-3.4-0.1-4.5,1.1c-0.5,0.5-0.8,1.1-1,1.8c-0.2,0.7-0.5,1.5-0.7,2.2    c-1.4-1.9-3.3-3.6-5.7-4.1c-2.6-0.5-5.4,0.5-7.6,1.9c-5.5,3.5-9,9.6-10.1,15.8c-0.4,2.4-0.5,4.9,0.2,7.2c0.7,2.3,2.2,4.5,4.5,5.6    c2.3,1.2,5.2,1.1,7.7,0.2c2.5-0.9,4.5-2.6,6.3-4.5c0.8,3.3,4.7,5.4,8.3,5.1c3.6-0.3,6.8-2.5,8.9-5.2c3.8-4.7,5.4-10.4,6.8-16    c0.5-1.8,1-3.6,1.5-5.5c1,0.2,1.8,0.4,2.7,0.6c2.1,0.6,3,1.8,2.6,3.9c-0.4,2.2-1.2,4.3-1.7,6.5c-0.8,3.2-1.7,6.4-2.2,9.6    c-1.2,7.8,10.1,6.7,14.4,3.8c1.8-1.2,3.4-2.7,4.9-4.3c1.5,3.4,4.3,5.7,7.9,6.4c4.9,0.9,9.7,0.3,14-2.2c2-1.2,3.9-2.7,5.8-4.1    l-0.5,1.7c-0.3,1.2-0.5,2.2-0.8,3.4c-0.1,0.4-0.2,1,0.3,1.2c0.2,0.1,0.4,0.1,0.6,0.2c1.3,0.2,2.5,0.1,3.8,0.1c1.4,0,3.1,0,4.3-0.7    c0.6-0.3,0.7-0.9,0.9-1.5c0.2-0.7,0.4-1.5,0.6-2.2c2.4,3.7,5,4.4,8.4,4.3c7.3-0.3,13.6-2.7,18.8-7.6c0.3-0.2,0.5-0.4,0.8-0.7    c1.3,4.3,4.3,7.3,8.6,8.1c4.9,0.9,9.7,0.3,14-2.2c2.4-1.4,4.5-3.2,6.7-4.8c0,0.3,0,0.8,0,1.3c0.2,3.4,2.2,5.4,5.7,5.9    c3.3,0.4,6.2-0.4,8.7-2.3c1.6-1.2,3.2-2.6,4.7-3.9c0.2,4.4,3.1,6.9,8.5,6.3c3.2-0.4,5.7-1.9,7.9-4c0.5-0.5,1-1,1.5-1.6    c-0.3,0.4,2.1,2.9,2.5,3.2c1,0.9,2.1,1.5,3.4,1.9c5.3,1.6,12.8,1.3,16.6-3c2.8-3.2,3.7-7.8,2.9-11.9    C269.1,33.5,268.6,31.3,268.1,29z M191,27.6c0.8-1.1,1.8-2.2,2.8-3.1c0.5-0.5,1.3-0.8,2.1-0.9c1.3-0.3,2.2,0.3,2.4,1.6    c0.5,2.9-0.9,5.3-2.7,7.4c0,0-3.1,3.6-7.7,2.5C188.4,32.3,189.4,29.9,191,27.6z M125.4,27.6c0.8-1.1,1.8-2.2,2.8-3.1    c0.5-0.5,1.3-0.8,2.1-0.9c1.3-0.3,2.2,0.3,2.4,1.6c0.5,2.9-0.9,5.3-2.7,7.4c0,0-3.1,3.6-7.7,2.5C122.8,32.3,123.8,29.9,125.4,27.6    z M69.4,31.5c-0.7,3.1-1.7,6.1-2.8,9.1c-0.5,1.2-1.5,2.3-2.4,3.3c-1,1.1-2.5,1.5-4,1c-1.4-0.5-1.7-1.8-1.9-3.1    c-0.1-0.6,0-1.3,0-1.9c0.2-4.9,1.6-9.4,4.8-13.3c0.6-0.8,1.5-1.4,2.5-1.9c1.8-0.8,3.8,0.1,4.1,1.9C69.9,28.2,69.8,29.9,69.4,31.5z     M163.3,29.9c-0.1,3.9-1.3,7.9-3.5,11.2c0,0,0,0,0,0c-0.4,0.6-0.8,1.2-1.3,1.7c-0.6,0.7-1.5,1.4-2.4,1.9c-2,1-4.1,0.2-4.3-1.9    c-0.2-1.8-0.1-3.7,0.2-5.4c0.8-3.9,2-8.6,5.4-11.3c0.7-0.5,1.4-0.9,2.1-1.3C163,23.3,163.3,27.8,163.3,29.9z M258.5,43.4    c-0.4,0.8-1,1.6-1.6,2.2c-2.4,2.5-6.2,2-8.2-1c-0.2-0.4-0.4-0.7-0.7-1.2c0,0.1,1.3-0.7,1.5-0.8c0.4-0.3,0.9-0.7,1.2-1.1    c0.9-1.1,1.4-2.7,1.6-4.1c0.1-0.7,0.2-1.7-0.3-2.3l0.7-1.1c1.6-2.4,3.3-4.8,4.9-7.2c0.1-0.1,0.2-0.3,0.3-0.4l0.7-0.9    c0,0,0.2,2.1,0.2,2.4c0.4,2.8,0.8,5.6,1.1,8.4C260.2,38.8,259.7,41.2,258.5,43.4z"/>
		<path d="M49.4,8.1c-1.8-3.3-4.8-5.2-8.4-6.5c-4.8-1.8-9.8-1.9-14.8-1.2c-6.9,1-13.1,3.5-18,8.4c-3.5,3.5-5,7.7-4.2,12.5    c0.6,3.8,4.5,5.4,7.5,3.1c0.9-0.7,1.3-1.4,0.9-2.6c-0.8-2.2-0.9-4.5-0.3-6.7c1.4-5.4,5-8.8,10.3-10.7c0,0,1.3-0.6,3.2-1.1    c0,0-5,6.9-7.7,16c-1.1,3.7-2.2,7.5-3.4,11.2c-1.2,4-2.2,8.1-4.7,11.7c-0.4,0.5-1.1,0.9-1.7,1.1c-2.5,0.5-5.5,1.6-7.1,3.6    c-0.7,0.9-1.2,2.1-0.9,3.2c0.4,1.3,2,1.6,3.2,1.6c3.6,0,6.9-1,10-2.7c0.5-0.3,1.3-0.4,1.7-0.2c4.2,1.8,8.6,2.5,13.2,1.9    c5.7-0.7,10.6-2.8,14.2-7.3c3.2-4,3.5-9.1,0.8-13c-1.4-2-3.4-3.3-5.8-4.4c0.5-0.2,0.8-0.3,1.2-0.4c2.7-0.9,5.2-2.1,7.4-3.8    C50.5,18.2,51.9,12.6,49.4,8.1z M34.9,35.2c-0.2,3.4-1.6,6.3-4.2,8.6c-3.5,3.1-7.6,3.4-12.4,1c4.3-5,6.1-11,7.7-17    C30.8,26.7,35.1,30.3,34.9,35.2z M35.9,20.9c-2.5,2.2-5.5,3-9.2,3.2c1.6-5.6,4.5-15.6,6.2-21.1c0.9,0.2,1.7,0.4,2.6,0.8    c2.5,1.1,3.9,3.1,4.2,5.6C40.3,13.7,39.4,17.7,35.9,20.9z"/>
	</g>
	<g>
		<path d="M52.6,68.2h6.7v2h-4.4v1.4h4v1.9h-4v3h-2.3V68.2z"/>
		<path d="M62.7,73v-4.7H65v4.7c0,1.2,0.6,1.8,1.5,1.8s1.5-0.6,1.5-1.7v-4.7h2.4v4.7c0,2.7-1.5,3.9-3.9,3.9S62.7,75.6,62.7,73z"/>
		<path d="M74.3,68.2h2.2l3.5,4.4v-4.4h2.3v8.4h-2L76.6,72v4.6h-2.3V68.2z"/>
		<path d="M85.5,72.5L85.5,72.5c0-2.5,1.9-4.4,4.4-4.4c1.7,0,2.8,0.7,3.6,1.8l-1.8,1.4c-0.5-0.6-1-1-1.8-1c-1.2,0-2,1-2,2.2v0    c0,1.3,0.8,2.2,2,2.2c0.9,0,1.4-0.4,1.9-1l1.8,1.2c-0.8,1.1-1.9,1.9-3.7,1.9C87.4,76.8,85.5,75,85.5,72.5z"/>
		<path d="M99,70.3h-2.5v-2h7.4v2h-2.5v6.4H99V70.3z"/>
		<path d="M107.3,68.2h2.3v8.4h-2.3V68.2z"/>
		<path d="M113.3,72.5L113.3,72.5c0-2.4,1.9-4.4,4.5-4.4s4.5,1.9,4.5,4.3v0c0,2.4-1.9,4.4-4.5,4.4C115.2,76.8,113.3,74.9,113.3,72.5    z M120,72.5L120,72.5c0-1.2-0.9-2.3-2.2-2.3c-1.3,0-2.1,1-2.1,2.2v0c0,1.2,0.9,2.3,2.1,2.3C119.1,74.7,120,73.7,120,72.5z"/>
		<path d="M126,68.2h2.2l3.5,4.4v-4.4h2.3v8.4h-2l-3.6-4.6v4.6H126V68.2z"/>
		<path d="M140.7,68.2h2.2l3.6,8.5H144l-0.6-1.5h-3.2l-0.6,1.5h-2.4L140.7,68.2z M142.7,73.3l-0.9-2.4l-0.9,2.4H142.7z"/>
		<path d="M149.7,68.2h2.3v6.4h4.1v2h-6.4V68.2z"/>
		<path d="M165.2,68.2h6.7v2h-4.4v1.4h4v1.9h-4v3h-2.3V68.2z"/>
		<path d="M175.1,72.5L175.1,72.5c0-2.4,1.9-4.4,4.5-4.4s4.5,1.9,4.5,4.3v0c0,2.4-1.9,4.4-4.5,4.4C177,76.8,175.1,74.9,175.1,72.5z     M181.8,72.5L181.8,72.5c0-1.2-0.9-2.3-2.2-2.3c-1.3,0-2.1,1-2.1,2.2v0c0,1.2,0.9,2.3,2.1,2.3C180.9,74.7,181.8,73.7,181.8,72.5z"/>
		<path d="M187.3,72.5L187.3,72.5c0-2.4,1.9-4.4,4.5-4.4s4.5,1.9,4.5,4.3v0c0,2.4-1.9,4.4-4.5,4.4C189.2,76.8,187.3,74.9,187.3,72.5    z M194,72.5L194,72.5c0-1.2-0.9-2.3-2.2-2.3c-1.3,0-2.1,1-2.1,2.2v0c0,1.2,0.9,2.3,2.1,2.3C193.1,74.7,194,73.7,194,72.5z"/>
		<path d="M200,68.2h3.2c3,0,4.7,1.7,4.7,4.1v0c0,2.4-1.8,4.2-4.8,4.2H200V68.2z M203.2,74.6c1.4,0,2.3-0.8,2.3-2.1v0    c0-1.3-0.9-2.1-2.3-2.1h-0.9v4.3H203.2z"/>
		<path d="M210.8,75.4l1.3-1.5c0.8,0.7,1.8,1,2.7,1c0.6,0,1-0.2,1-0.6v0c0-0.3-0.3-0.5-1.4-0.8c-1.8-0.4-3.2-0.9-3.2-2.6v0    c0-1.6,1.2-2.7,3.2-2.7c1.4,0,2.5,0.4,3.5,1.1l-1.2,1.6c-0.8-0.5-1.6-0.8-2.4-0.8c-0.6,0-0.8,0.2-0.8,0.5v0c0,0.4,0.3,0.6,1.5,0.8    c1.9,0.4,3.1,1,3.1,2.6v0c0,1.7-1.4,2.7-3.4,2.7C213.2,76.8,211.8,76.3,210.8,75.4z"/>
	</g>
</g>
</svg>